# Blender v3.0.0 OBJ File: 'untitled.blend'
# www.blender.org
o board
v 0.890138 0.018992 -0.203405
v 0.924013 0.018992 -0.182132
v 0.922910 0.009230 -0.180375
v 0.889035 0.009230 -0.201648
v 0.919790 0.001156 -0.175407
v 0.885915 0.001156 -0.196680
v 0.915193 -0.003834 -0.168088
v 0.881319 -0.003834 -0.189361
v 0.909915 -0.004877 -0.159683
v 0.876041 -0.004877 -0.180956
v 0.904867 -0.001793 -0.151645
v 0.870993 -0.001793 -0.172918
v 0.900923 0.004885 -0.145365
v 0.867049 0.004885 -0.166638
v 0.898764 0.014002 -0.141927
v 0.864890 0.014002 -0.163200
v 0.898764 0.023982 -0.141927
v 0.864890 0.023982 -0.163200
v 0.900923 0.033098 -0.145365
v 0.867049 0.033098 -0.166638
v 0.904867 0.039776 -0.151645
v 0.870993 0.039776 -0.172918
v 0.909915 0.042860 -0.159683
v 0.876041 0.042860 -0.180956
v 0.915193 0.041817 -0.168088
v 0.881319 0.041817 -0.189361
v 0.919790 0.036827 -0.175407
v 0.885915 0.036827 -0.196680
v 0.922910 0.028754 -0.180375
v 0.889035 0.028754 -0.201648
v -0.915803 1.675526 0.020000
v -0.915803 0.075526 0.020000
v -0.915803 0.075526 -0.020000
v -0.915803 1.675526 -0.020000
v -0.875803 0.075526 -0.020000
v -0.875803 1.675526 -0.020000
v -0.875803 0.075526 0.020000
v -0.875803 1.675526 0.020000
v 0.915803 1.675527 -0.020000
v 0.915803 0.075527 -0.020000
v 0.915803 0.075527 0.020000
v 0.915803 1.675527 0.020000
v 0.875803 0.075527 0.020000
v 0.875803 1.675527 0.020000
v 0.875803 0.075527 -0.020000
v 0.875803 1.675527 -0.020000
v 0.895931 0.716005 0.000000
v -0.895931 0.716005 0.000000
v -0.895931 1.673813 0.000000
v -0.915803 0.042770 0.175751
v -0.915803 0.075497 0.175751
v -0.915803 0.075497 -0.175751
v -0.915803 0.042770 -0.175751
v -0.875803 0.075497 -0.175751
v -0.875803 0.042770 -0.175751
v -0.875803 0.075497 0.175751
v -0.875803 0.042770 0.175751
v 0.875588 0.042770 0.175751
v 0.875588 0.075497 0.175751
v 0.875588 0.075497 -0.175751
v 0.875588 0.042770 -0.175751
v 0.915588 0.075497 -0.175751
v 0.915588 0.042770 -0.175751
v 0.915588 0.075497 0.175751
v 0.915588 0.042770 0.175751
v -0.901719 0.018992 0.141610
v -0.867845 0.018992 0.162882
v -0.868949 0.009230 0.164639
v -0.902823 0.009230 0.143366
v -0.872068 0.001156 0.169607
v -0.905942 0.001156 0.148334
v -0.876665 -0.003834 0.176926
v -0.910539 -0.003834 0.155654
v -0.881943 -0.004877 0.185331
v -0.915818 -0.004877 0.164058
v -0.886990 -0.001793 0.193369
v -0.920865 -0.001793 0.172096
v -0.890935 0.004885 0.199650
v -0.924809 0.004885 0.178377
v -0.893094 0.014002 0.203087
v -0.926968 0.014002 0.181814
v -0.893094 0.023982 0.203087
v -0.926968 0.023982 0.181814
v -0.890935 0.033098 0.199650
v -0.924809 0.033098 0.178377
v -0.886990 0.039776 0.193369
v -0.920865 0.039776 0.172096
v -0.881943 0.042860 0.185331
v -0.915818 0.042860 0.164058
v -0.876665 0.041817 0.176926
v -0.910539 0.041817 0.155654
v -0.872068 0.036827 0.169607
v -0.905942 0.036827 0.148334
v -0.868949 0.028754 0.164639
v -0.902823 0.028754 0.143366
v -0.901719 0.018992 -0.203405
v -0.867845 0.018992 -0.182132
v -0.868949 0.009230 -0.180374
v -0.902823 0.009230 -0.201648
v -0.872068 0.001156 -0.175407
v -0.905942 0.001156 -0.196680
v -0.876665 -0.003834 -0.168088
v -0.910539 -0.003834 -0.189361
v -0.881943 -0.004877 -0.159683
v -0.915818 -0.004877 -0.180956
v -0.886990 -0.001793 -0.151645
v -0.920865 -0.001793 -0.172918
v -0.890935 0.004885 -0.145365
v -0.924809 0.004885 -0.166638
v -0.893094 0.014002 -0.141927
v -0.926968 0.014002 -0.163200
v -0.893094 0.023982 -0.141927
v -0.926968 0.023982 -0.163200
v -0.890935 0.033098 -0.145365
v -0.924809 0.033098 -0.166638
v -0.886990 0.039776 -0.151645
v -0.920865 0.039776 -0.172918
v -0.881943 0.042860 -0.159683
v -0.915818 0.042860 -0.180956
v -0.876665 0.041817 -0.168088
v -0.910539 0.041817 -0.189361
v -0.872068 0.036827 -0.175407
v -0.905942 0.036827 -0.196680
v -0.868949 0.028754 -0.180374
v -0.902823 0.028754 -0.201648
v 0.890138 0.018992 0.141610
v 0.924013 0.018992 0.162882
v 0.922910 0.009230 0.164639
v 0.889035 0.009230 0.143366
v 0.919790 0.001156 0.169607
v 0.885915 0.001156 0.148334
v 0.915193 -0.003834 0.176926
v 0.881319 -0.003834 0.155654
v 0.909914 -0.004877 0.185331
v 0.876041 -0.004877 0.164058
v 0.904867 -0.001793 0.193369
v 0.870993 -0.001793 0.172096
v 0.900923 0.004885 0.199650
v 0.867049 0.004885 0.178377
v 0.898764 0.014002 0.203087
v 0.864890 0.014002 0.181814
v 0.898764 0.023982 0.203087
v 0.864890 0.023982 0.181814
v 0.900923 0.033098 0.199650
v 0.867049 0.033098 0.178377
v 0.904867 0.039776 0.193369
v 0.870993 0.039776 0.172096
v 0.909914 0.042860 0.185331
v 0.876041 0.042860 0.164058
v 0.915193 0.041817 0.176926
v 0.881319 0.041817 0.155654
v 0.919790 0.036827 0.169607
v 0.885915 0.036827 0.148334
v 0.922910 0.028754 0.164639
v 0.889035 0.028754 0.143366
v 0.895931 1.673813 0.000000
vt 1.000000 1.000000
vt 1.000000 0.500000
vt 0.933333 0.500000
vt 0.933333 1.000000
vt 0.866667 0.500000
vt 0.866667 1.000000
vt 0.800000 0.500000
vt 0.800000 1.000000
vt 0.733333 0.500000
vt 0.733333 1.000000
vt 0.666667 0.500000
vt 0.666667 1.000000
vt 0.600000 0.500000
vt 0.600000 1.000000
vt 0.533333 0.500000
vt 0.533333 1.000000
vt 0.466667 0.500000
vt 0.466667 1.000000
vt 0.400000 0.500000
vt 0.400000 1.000000
vt 0.333333 0.500000
vt 0.333333 1.000000
vt 0.266667 0.500000
vt 0.266667 1.000000
vt 0.200000 0.500000
vt 0.200000 1.000000
vt 0.133333 0.500000
vt 0.250000 0.490000
vt 0.299899 0.015245
vt 0.011315 0.224913
vt 0.133333 1.000000
vt 0.066667 0.500000
vt 0.066667 1.000000
vt 0.000000 0.500000
vt 0.571645 0.410591
vt 0.957846 0.130000
vt 0.847617 0.469251
vt 0.625000 0.000000
vt 0.375000 0.000000
vt 0.375000 0.250000
vt 0.625000 0.250000
vt 0.375000 0.500000
vt 0.625000 0.500000
vt 0.375000 0.750000
vt 0.625000 0.750000
vt 0.375000 1.000000
vt 0.125000 0.500000
vt 0.125000 0.750000
vt 0.875000 0.500000
vt 0.625000 0.000000
vt 0.375000 0.000000
vt 0.375000 0.250000
vt 0.625000 0.250000
vt 0.375000 0.500000
vt 0.625000 0.500000
vt 0.375000 0.750000
vt 0.625000 0.750000
vt 0.375000 1.000000
vt 0.125000 0.500000
vt 0.125000 0.750000
vt 0.875000 0.500000
vt 1.000000 0.000000
vt 0.000000 0.000000
vt 0.000000 1.000000
vt 0.625000 0.000000
vt 0.375000 0.000000
vt 0.375000 0.250000
vt 0.625000 0.250000
vt 0.375000 0.500000
vt 0.625000 0.500000
vt 0.375000 0.750000
vt 0.625000 0.750000
vt 0.375000 1.000000
vt 0.125000 0.500000
vt 0.125000 0.750000
vt 0.875000 0.750000
vt 0.625000 0.000000
vt 0.375000 0.000000
vt 0.375000 0.250000
vt 0.625000 0.250000
vt 0.375000 0.500000
vt 0.625000 0.500000
vt 0.375000 0.750000
vt 0.625000 0.750000
vt 0.375000 1.000000
vt 0.125000 0.500000
vt 0.125000 0.750000
vt 0.875000 0.500000
vt 1.000000 1.000000
vt 1.000000 0.500000
vt 0.933333 0.500000
vt 0.933333 1.000000
vt 0.866667 0.500000
vt 0.866667 1.000000
vt 0.800000 0.500000
vt 0.800000 1.000000
vt 0.733333 0.500000
vt 0.733333 1.000000
vt 0.666667 0.500000
vt 0.666667 1.000000
vt 0.600000 0.500000
vt 0.600000 1.000000
vt 0.533333 0.500000
vt 0.533333 1.000000
vt 0.466667 0.500000
vt 0.466667 1.000000
vt 0.400000 0.500000
vt 0.400000 1.000000
vt 0.333333 0.500000
vt 0.333333 1.000000
vt 0.266667 0.500000
vt 0.266667 1.000000
vt 0.200000 0.500000
vt 0.200000 1.000000
vt 0.133333 0.500000
vt 0.457846 0.130000
vt 0.011315 0.224913
vt 0.478254 0.324164
vt 0.133333 1.000000
vt 0.066667 0.500000
vt 0.066667 1.000000
vt 0.000000 0.500000
vt 0.957846 0.130000
vt 0.571645 0.410591
vt 0.608932 0.055836
vt 1.000000 1.000000
vt 1.000000 0.500000
vt 0.933333 0.500000
vt 0.933333 1.000000
vt 0.866667 0.500000
vt 0.866667 1.000000
vt 0.800000 0.500000
vt 0.800000 1.000000
vt 0.733333 0.500000
vt 0.733333 1.000000
vt 0.666667 0.500000
vt 0.666667 1.000000
vt 0.600000 0.500000
vt 0.600000 1.000000
vt 0.533333 0.500000
vt 0.533333 1.000000
vt 0.466667 0.500000
vt 0.466667 1.000000
vt 0.400000 0.500000
vt 0.400000 1.000000
vt 0.333333 0.500000
vt 0.333333 1.000000
vt 0.266667 0.500000
vt 0.266667 1.000000
vt 0.200000 0.500000
vt 0.200000 1.000000
vt 0.133333 0.500000
vt 0.457846 0.130000
vt 0.011315 0.224913
vt 0.478254 0.324164
vt 0.133333 1.000000
vt 0.066667 0.500000
vt 0.066667 1.000000
vt 0.000000 0.500000
vt 0.957846 0.130000
vt 0.571645 0.410591
vt 0.608932 0.055836
vt 1.000000 1.000000
vt 1.000000 0.500000
vt 0.933333 0.500000
vt 0.933333 1.000000
vt 0.866667 0.500000
vt 0.866667 1.000000
vt 0.800000 0.500000
vt 0.800000 1.000000
vt 0.733333 0.500000
vt 0.733333 1.000000
vt 0.666667 0.500000
vt 0.666667 1.000000
vt 0.600000 0.500000
vt 0.600000 1.000000
vt 0.533333 0.500000
vt 0.533333 1.000000
vt 0.466667 0.500000
vt 0.466667 1.000000
vt 0.400000 0.500000
vt 0.400000 1.000000
vt 0.333333 0.500000
vt 0.333333 1.000000
vt 0.266667 0.500000
vt 0.266667 1.000000
vt 0.200000 0.500000
vt 0.200000 1.000000
vt 0.133333 0.500000
vt 0.108932 0.055836
vt 0.478254 0.324164
vt 0.299899 0.015245
vt 0.133333 1.000000
vt 0.066667 0.500000
vt 0.066667 1.000000
vt 0.000000 0.500000
vt 0.957846 0.130000
vt 0.571645 0.410591
vt 0.608932 0.055836
vt 0.428355 0.410591
vt 0.478254 0.324164
vt 0.347617 0.469251
vt 0.071645 0.410591
vt 0.152383 0.469251
vt 0.021746 0.324164
vt 0.042154 0.130000
vt 0.108932 0.055836
vt 0.200101 0.015245
vt 0.457846 0.130000
vt 0.391068 0.055836
vt 0.488685 0.224913
vt 0.000000 1.000000
vt 0.652383 0.469251
vt 0.750000 0.490000
vt 0.928355 0.410591
vt 0.978254 0.324164
vt 0.988685 0.224913
vt 0.799899 0.015245
vt 0.891068 0.055836
vt 0.700101 0.015245
vt 0.608932 0.055836
vt 0.511315 0.224913
vt 0.542154 0.130000
vt 0.521746 0.324164
vt 0.625000 1.000000
vt 0.875000 0.750000
vt 0.625000 1.000000
vt 0.875000 0.750000
vt 1.000000 1.000000
vt 0.625000 1.000000
vt 0.875000 0.500000
vt 0.625000 1.000000
vt 0.875000 0.750000
vt 0.428355 0.410591
vt 0.250000 0.490000
vt 0.347617 0.469251
vt 0.152383 0.469251
vt 0.071645 0.410591
vt 0.021746 0.324164
vt 0.299899 0.015245
vt 0.042154 0.130000
vt 0.108932 0.055836
vt 0.200101 0.015245
vt 0.391068 0.055836
vt 0.488685 0.224913
vt 0.000000 1.000000
vt 0.652383 0.469251
vt 0.847617 0.469251
vt 0.750000 0.490000
vt 0.928355 0.410591
vt 0.978254 0.324164
vt 0.988685 0.224913
vt 0.799899 0.015245
vt 0.891068 0.055836
vt 0.700101 0.015245
vt 0.542154 0.130000
vt 0.511315 0.224913
vt 0.521746 0.324164
vt 0.428355 0.410591
vt 0.250000 0.490000
vt 0.347617 0.469251
vt 0.152383 0.469251
vt 0.071645 0.410591
vt 0.021746 0.324164
vt 0.299899 0.015245
vt 0.042154 0.130000
vt 0.108932 0.055836
vt 0.200101 0.015245
vt 0.391068 0.055836
vt 0.488685 0.224913
vt 0.000000 1.000000
vt 0.652383 0.469251
vt 0.847617 0.469251
vt 0.750000 0.490000
vt 0.928355 0.410591
vt 0.978254 0.324164
vt 0.988685 0.224913
vt 0.799899 0.015245
vt 0.891068 0.055836
vt 0.700101 0.015245
vt 0.542154 0.130000
vt 0.511315 0.224913
vt 0.521746 0.324164
vt 0.428355 0.410591
vt 0.347617 0.469251
vt 0.250000 0.490000
vt 0.071645 0.410591
vt 0.152383 0.469251
vt 0.011315 0.224913
vt 0.021746 0.324164
vt 0.042154 0.130000
vt 0.200101 0.015245
vt 0.391068 0.055836
vt 0.457846 0.130000
vt 0.488685 0.224913
vt 0.000000 1.000000
vt 0.652383 0.469251
vt 0.847617 0.469251
vt 0.750000 0.490000
vt 0.978254 0.324164
vt 0.928355 0.410591
vt 0.988685 0.224913
vt 0.891068 0.055836
vt 0.799899 0.015245
vt 0.700101 0.015245
vt 0.542154 0.130000
vt 0.511315 0.224913
vt 0.521746 0.324164
vn 0.5202 -0.2079 -0.8284
vn 0.4302 -0.5878 -0.6851
vn 0.2659 -0.8660 -0.4234
vn 0.0556 -0.9945 -0.0885
vn -0.1643 -0.9511 0.2617
vn -0.3559 -0.7431 0.5667
vn -0.4858 -0.4068 0.7736
vn -0.5318 0.0000 0.8469
vn -0.4858 0.4068 0.7736
vn -0.3559 0.7432 0.5666
vn -0.3559 0.7431 0.5667
vn -0.1643 0.9511 0.2617
vn 0.0556 0.9945 -0.0885
vn 0.2659 0.8660 -0.4234
vn -0.8469 -0.0000 -0.5318
vn -0.8468 0.0000 -0.5318
vn 0.4302 0.5878 -0.6851
vn 0.5202 0.2079 -0.8284
vn 0.8469 0.0000 0.5318
vn 1.0000 0.0000 0.0000
vn 0.0000 -0.0000 1.0000
vn -1.0000 -0.0000 0.0000
vn 0.0000 0.0000 -1.0000
vn 0.0000 1.0000 0.0000
vn 0.0000 -1.0000 0.0000
vn -0.1644 -0.9511 0.2617
vn -0.1644 -0.9510 0.2617
vn -0.3559 -0.7432 0.5666
vn -0.3558 -0.7432 0.5666
vn -0.4859 -0.4067 0.7736
vn -0.4858 -0.4067 0.7736
vn -0.4858 0.4067 0.7736
vn -0.3558 0.7432 0.5666
vn -0.1644 0.9510 0.2617
vn -0.1644 0.9511 0.2617
vn 0.5202 -0.2079 -0.8283
vn 0.5202 -0.2080 -0.8283
vn 0.4303 -0.5878 -0.6851
vn 0.4303 0.5878 -0.6851
vn 0.5202 0.2079 -0.8283
vn 0.5202 0.2080 -0.8283
vn 0.8468 -0.0000 0.5318
vn -0.3559 -0.7432 0.5667
vn -0.3559 0.7432 0.5667
vn -0.8468 -0.0000 -0.5319
vn -0.8471 0.0000 -0.5315
vn -0.8469 -0.0001 -0.5317
vn -0.8469 0.0002 -0.5317
vn 0.8468 -0.0000 0.5319
vn 0.8469 0.0001 0.5318
vn 0.8469 -0.0001 0.5318
vn 0.8469 0.0002 0.5318
vn -0.8468 -0.0001 -0.5320
vn -0.8470 -0.0003 -0.5316
vn -0.8469 0.0002 -0.5318
vn 0.8469 -0.0000 0.5317
vn 0.8470 0.0001 0.5316
vn -0.8470 0.0001 -0.5316
vn -0.8469 0.0001 -0.5318
vn 0.8470 -0.0000 0.5317
vn 0.8469 0.0002 0.5317
vn 0.8467 -0.0001 0.5321
vn -0.8469 0.0000 -0.5317
vn -0.8470 -0.0003 -0.5317
vn -0.8469 0.0001 -0.5317
vn -0.8468 0.0001 -0.5318
vn -0.8468 0.0001 -0.5319
vn -0.8468 -0.0001 -0.5318
s 1
f 1/1/1 2/2/1 3/3/1
f 4/4/2 3/3/2 5/5/2
f 6/6/3 5/5/3 7/7/3
f 8/8/4 7/7/4 9/9/4
f 10/10/5 9/9/5 11/11/5
f 12/12/6 11/11/6 13/13/6
f 14/14/7 13/13/7 15/15/7
f 16/16/8 15/15/8 17/17/8
f 18/18/9 17/17/9 19/19/9
f 20/20/10 19/19/11 21/21/11
f 22/22/12 21/21/12 23/23/12
f 24/24/13 23/23/13 25/25/13
f 26/26/14 25/25/14 27/27/14
f 1/28/15 16/29/15 24/30/16
f 28/31/17 27/27/17 29/32/17
f 30/33/18 29/32/18 2/34/18
f 27/35/19 11/36/19 3/37/19
f 31/38/20 32/39/20 33/40/20
f 34/41/21 33/40/21 35/42/21
f 36/43/22 35/42/22 37/44/22
f 38/45/23 37/44/23 32/46/23
f 35/42/24 33/47/24 32/48/24
f 34/49/25 36/43/25 38/45/25
f 39/50/22 40/51/22 41/52/22
f 42/53/23 41/52/23 43/54/23
f 44/55/20 43/54/20 45/56/20
f 46/57/21 45/56/21 40/58/21
f 43/54/24 41/59/24 40/60/24
f 42/61/25 44/55/25 46/57/25
f 47/62/23 48/63/23 49/64/23
f 50/65/22 51/66/22 52/67/22
f 53/68/23 52/67/23 54/69/23
f 55/70/20 54/69/20 56/71/20
f 57/72/21 56/71/21 51/73/21
f 54/69/24 52/74/24 51/75/24
f 55/70/25 57/72/25 50/76/25
f 58/77/22 59/78/22 60/79/22
f 61/80/23 60/79/23 62/81/23
f 63/82/20 62/81/20 64/83/20
f 65/84/21 64/83/21 59/85/21
f 62/81/24 60/86/24 59/87/24
f 61/88/25 63/82/25 65/84/25
f 66/89/1 67/90/1 68/91/1
f 69/92/2 68/91/2 70/93/2
f 71/94/3 70/93/3 72/95/3
f 73/96/4 72/95/4 74/97/4
f 75/98/26 74/97/27 76/99/27
f 77/100/28 76/99/29 78/101/29
f 79/102/7 78/101/30 80/103/31
f 81/104/8 80/103/8 82/105/8
f 83/106/9 82/105/32 84/107/32
f 85/108/10 84/107/33 86/109/33
f 87/110/34 86/109/35 88/111/34
f 89/112/13 88/111/13 90/113/13
f 91/114/14 90/113/14 92/115/14
f 77/116/15 89/117/15 73/118/16
f 93/119/17 92/115/17 94/120/17
f 95/121/18 94/120/18 67/122/18
f 76/123/19 92/124/19 84/125/19
f 96/126/36 97/127/37 98/128/37
f 99/129/2 98/128/38 100/130/38
f 101/131/3 100/130/3 102/132/3
f 103/133/4 102/132/4 104/134/4
f 105/135/26 104/134/5 106/136/5
f 107/137/28 106/136/6 108/138/6
f 109/139/7 108/138/30 110/140/31
f 111/141/8 110/140/8 112/142/8
f 113/143/9 112/142/32 114/144/32
f 115/145/10 114/144/11 116/146/11
f 117/147/35 116/146/12 118/148/12
f 119/149/13 118/148/13 120/150/13
f 121/151/14 120/150/14 122/152/14
f 107/153/15 119/154/15 103/155/16
f 123/156/39 122/152/39 124/157/39
f 125/158/40 124/157/41 97/159/41
f 106/160/42 122/161/19 114/162/19
f 126/163/1 127/164/1 128/165/1
f 129/166/2 128/165/2 130/167/2
f 131/168/3 130/167/3 132/169/3
f 133/170/4 132/169/4 134/171/4
f 135/172/5 134/171/27 136/173/26
f 137/174/43 136/173/28 138/175/28
f 139/176/31 138/175/7 140/177/7
f 141/178/8 140/177/8 142/179/8
f 143/180/32 142/179/9 144/181/9
f 145/182/44 144/181/10 146/183/10
f 147/184/12 146/183/35 148/185/35
f 149/186/13 148/185/13 150/187/13
f 151/188/14 150/187/14 152/189/14
f 145/190/15 133/191/15 141/192/15
f 153/193/17 152/189/17 154/194/17
f 155/195/18 154/194/18 127/196/18
f 136/197/19 152/198/19 144/199/19
f 1/1/1 3/3/1 4/4/1
f 4/4/2 5/5/2 6/6/2
f 6/6/3 7/7/3 8/8/3
f 8/8/4 9/9/4 10/10/4
f 10/10/5 11/11/5 12/12/5
f 12/12/6 13/13/6 14/14/43
f 14/14/7 15/15/7 16/16/7
f 16/16/8 17/17/8 18/18/8
f 18/18/9 19/19/9 20/20/9
f 20/20/10 21/21/11 22/22/10
f 22/22/12 23/23/12 24/24/12
f 24/24/13 25/25/13 26/26/13
f 26/26/14 27/27/14 28/31/14
f 6/200/15 8/201/15 4/202/15
f 4/202/15 8/201/15 1/28/15
f 1/28/15 28/203/15 30/204/16
f 28/203/15 1/28/15 26/205/15
f 26/205/15 1/28/15 24/30/16
f 24/30/16 16/29/15 22/206/45
f 22/206/45 16/29/15 20/207/15
f 20/207/15 16/29/15 18/208/46
f 16/29/15 12/209/16 14/210/47
f 12/209/16 8/201/15 10/211/48
f 16/29/15 8/201/15 12/209/16
f 8/201/15 16/29/15 1/28/15
f 28/31/17 29/32/17 30/33/17
f 30/33/18 2/34/18 1/212/18
f 29/213/49 27/35/19 2/214/19
f 2/214/19 27/35/19 3/37/19
f 3/37/19 11/36/19 5/215/19
f 5/215/19 11/36/19 7/216/19
f 7/216/19 11/36/19 9/217/50
f 11/36/19 15/218/42 13/219/19
f 15/218/42 11/36/19 17/220/49
f 17/220/49 11/36/19 19/221/42
f 19/221/42 23/222/19 21/223/51
f 23/222/19 27/35/19 25/224/52
f 19/221/42 11/36/19 23/222/19
f 23/222/19 11/36/19 27/35/19
f 31/38/20 33/40/20 34/41/20
f 34/41/21 35/42/21 36/43/21
f 36/43/22 37/44/22 38/45/22
f 38/45/23 32/46/23 31/225/23
f 35/42/24 32/48/24 37/44/24
f 34/49/25 38/45/25 31/226/25
f 39/50/22 41/52/22 42/53/22
f 42/53/23 43/54/23 44/55/23
f 44/55/20 45/56/20 46/57/20
f 46/57/21 40/58/21 39/227/21
f 43/54/24 40/60/24 45/56/24
f 42/61/25 46/57/25 39/228/25
f 47/62/23 49/64/23 156/229/23
f 50/65/22 52/67/22 53/68/22
f 53/68/23 54/69/23 55/70/23
f 55/70/20 56/71/20 57/72/20
f 57/72/21 51/73/21 50/230/21
f 54/69/24 51/75/24 56/71/24
f 55/70/25 50/76/25 53/231/25
f 58/77/22 60/79/22 61/80/22
f 61/80/23 62/81/23 63/82/23
f 63/82/20 64/83/20 65/84/20
f 65/84/21 59/85/21 58/232/21
f 62/81/24 59/87/24 64/83/24
f 61/88/25 65/84/25 58/233/25
f 66/89/1 68/91/1 69/92/1
f 69/92/2 70/93/2 71/94/2
f 71/94/3 72/95/3 73/96/3
f 73/96/4 74/97/4 75/98/4
f 75/98/26 76/99/27 77/100/26
f 77/100/28 78/101/29 79/102/28
f 79/102/7 80/103/31 81/104/7
f 81/104/8 82/105/8 83/106/8
f 83/106/9 84/107/32 85/108/9
f 85/108/10 86/109/33 87/110/44
f 87/110/34 88/111/34 89/112/34
f 89/112/13 90/113/13 91/114/13
f 91/114/14 92/115/14 93/119/14
f 71/234/15 66/235/15 69/236/53
f 66/235/15 89/117/15 95/237/15
f 95/237/15 89/117/15 93/238/54
f 93/238/54 89/117/15 91/239/16
f 89/117/15 81/240/15 87/241/15
f 87/241/15 81/240/15 85/242/15
f 85/242/15 81/240/15 83/243/46
f 81/240/15 77/116/15 79/244/47
f 77/116/15 73/118/16 75/245/55
f 73/118/16 89/117/15 71/234/15
f 71/234/15 89/117/15 66/235/15
f 81/240/15 89/117/15 77/116/15
f 93/119/17 94/120/17 95/121/17
f 95/121/18 67/122/18 66/246/18
f 94/247/19 68/248/42 67/249/56
f 68/248/42 76/123/19 70/250/50
f 70/250/50 76/123/19 72/251/19
f 72/251/19 76/123/19 74/252/52
f 76/123/19 80/253/42 78/254/57
f 80/253/42 76/123/19 82/255/19
f 82/255/19 76/123/19 84/125/19
f 84/125/19 92/124/19 86/256/19
f 86/256/19 92/124/19 88/257/50
f 88/257/50 92/124/19 90/258/42
f 92/124/19 76/123/19 94/247/19
f 94/247/19 76/123/19 68/248/42
f 96/126/36 98/128/37 99/129/36
f 99/129/2 100/130/38 101/131/2
f 101/131/3 102/132/3 103/133/3
f 103/133/4 104/134/4 105/135/4
f 105/135/26 106/136/5 107/137/27
f 107/137/28 108/138/6 109/139/28
f 109/139/7 110/140/31 111/141/7
f 111/141/8 112/142/8 113/143/8
f 113/143/9 114/144/32 115/145/9
f 115/145/10 116/146/11 117/147/10
f 117/147/35 118/148/12 119/149/34
f 119/149/13 120/150/13 121/151/13
f 121/151/14 122/152/14 123/156/14
f 101/259/15 96/260/15 99/261/58
f 96/260/15 119/154/15 125/262/15
f 125/262/15 119/154/15 123/263/54
f 123/263/54 119/154/15 121/264/16
f 119/154/15 111/265/15 117/266/15
f 117/266/15 111/265/15 115/267/15
f 115/267/15 111/265/15 113/268/46
f 111/265/15 107/153/15 109/269/47
f 107/153/15 103/155/16 105/270/59
f 103/155/16 119/154/15 101/259/15
f 101/259/15 119/154/15 96/260/15
f 111/265/15 119/154/15 107/153/15
f 123/156/39 124/157/39 125/158/39
f 125/158/40 97/159/41 96/271/18
f 124/272/19 98/273/19 97/274/60
f 98/273/19 106/160/42 100/275/19
f 100/275/19 106/160/42 102/276/51
f 102/276/51 106/160/42 104/277/61
f 106/160/42 110/278/49 108/279/62
f 110/278/49 106/160/42 112/280/19
f 112/280/19 106/160/42 114/162/19
f 114/162/19 122/161/19 116/281/51
f 116/281/51 122/161/19 118/282/52
f 118/282/52 122/161/19 120/283/42
f 122/161/19 106/160/42 124/272/19
f 124/272/19 106/160/42 98/273/19
f 126/163/1 128/165/1 129/166/1
f 129/166/2 130/167/2 131/168/2
f 131/168/3 132/169/3 133/170/3
f 133/170/4 134/171/4 135/172/4
f 135/172/5 136/173/26 137/174/5
f 137/174/43 138/175/28 139/176/43
f 139/176/31 140/177/7 141/178/31
f 141/178/8 142/179/8 143/180/8
f 143/180/32 144/181/9 145/182/32
f 145/182/44 146/183/10 147/184/44
f 147/184/12 148/185/35 149/186/12
f 149/186/13 150/187/13 151/188/13
f 151/188/14 152/189/14 153/193/14
f 131/284/63 133/191/15 129/285/15
f 129/285/15 133/191/15 126/286/15
f 126/286/15 153/287/15 155/288/45
f 153/287/15 149/289/15 151/290/64
f 149/289/15 145/190/15 147/291/65
f 145/190/15 141/192/15 143/292/15
f 141/192/15 133/191/15 139/293/66
f 139/293/66 133/191/15 137/294/67
f 137/294/67 133/191/15 135/295/68
f 126/286/15 133/191/15 153/287/15
f 153/287/15 133/191/15 149/289/15
f 149/289/15 133/191/15 145/190/15
f 153/193/17 154/194/17 155/195/17
f 155/195/18 127/196/18 126/296/18
f 154/297/42 128/298/19 127/299/19
f 128/298/19 132/300/42 130/301/49
f 132/300/42 128/298/19 134/302/51
f 134/302/51 128/298/19 136/197/19
f 136/197/19 144/199/19 138/303/19
f 138/303/19 144/199/19 140/304/49
f 140/304/49 144/199/19 142/305/49
f 144/199/19 152/198/19 146/306/19
f 146/306/19 152/198/19 148/307/50
f 148/307/50 152/198/19 150/308/19
f 152/198/19 128/298/19 154/297/42
f 152/198/19 136/197/19 128/298/19
