# Blender v3.0.0 OBJ File: 'untitled.blend'
# www.blender.org
o sign
v -0.066017 0.430977 -0.143307
v -0.087640 0.041288 -0.318684
v -0.135968 0.000000 -0.337265
v 0.102422 0.500000 -0.112243
v 0.066017 0.483119 -0.119841
v -0.066017 0.483119 -0.119841
v -0.066017 0.430977 -0.081448
v -0.087640 0.041288 0.093929
v -0.135968 -0.000000 0.112511
v 0.066017 0.483119 -0.104914
v -0.066017 0.483119 -0.104914
v -0.102422 0.500000 -0.112511
v 0.087640 0.000000 -0.337265
v 0.087640 0.041288 -0.318684
v 0.135968 0.000000 -0.337265
v 0.066017 0.430977 -0.143307
v -0.102422 0.500000 -0.112243
v -0.087640 0.000000 -0.337265
v 0.087640 -0.000000 0.112511
v 0.087640 0.041288 0.093929
v 0.135968 -0.000000 0.112511
v 0.066017 0.430977 -0.081448
v 0.102422 0.500000 -0.112511
v -0.087640 -0.000000 0.112511
vt 0.177721 0.861953
vt 0.177721 0.082576
vt 0.000000 0.000000
vt 1.000000 1.000000
vt 0.822279 0.966237
vt 0.177721 0.966237
vt 0.177721 0.861953
vt 0.177721 0.082576
vt 0.000000 0.000000
vt 0.822279 0.966237
vt 0.177721 0.966237
vt 0.000000 1.000000
vt 0.822279 0.000000
vt 0.822279 0.082576
vt 1.000000 0.000000
vt 0.822279 0.861953
vt 0.000000 1.000000
vt 0.177721 0.000000
vt 0.822279 0.000000
vt 0.822279 0.082576
vt 1.000000 0.000000
vt 0.822279 0.861953
vt 1.000000 1.000000
vt 0.177721 0.000000
vn -0.0000 0.4104 -0.9119
vn -0.0000 -0.4104 -0.9119
s 1
f 1/1/1 2/2/1 3/3/1
f 4/4/1 5/5/1 6/6/1
f 7/7/2 8/8/2 9/9/2
f 10/10/2 11/11/2 12/12/2
f 13/13/1 14/14/1 15/15/1
f 15/15/1 16/16/1 4/4/1
f 4/4/1 16/16/1 5/5/1
f 1/1/1 17/17/1 6/6/1
f 15/15/1 14/14/1 16/16/1
f 1/1/1 3/3/1 17/17/1
f 3/3/1 2/2/1 18/18/1
f 2/2/1 16/16/1 14/14/1
f 16/16/1 2/2/1 1/1/1
f 4/4/1 6/6/1 17/17/1
f 19/19/2 20/20/2 21/21/2
f 21/21/2 22/22/2 23/23/2
f 23/23/2 22/22/2 10/10/2
f 7/7/2 12/12/2 11/11/2
f 21/21/2 20/20/2 22/22/2
f 7/7/2 9/9/2 12/12/2
f 9/9/2 8/8/2 24/24/2
f 8/8/2 22/22/2 20/20/2
f 22/22/2 8/8/2 7/7/2
f 10/10/2 12/12/2 23/23/2
