# Blender v3.0.0 OBJ File: 'untitled.blend'
# www.blender.org
o ₳
v -0.228104 0.629767 -0.017724
v -0.229415 0.627820 -0.017687
v -0.227084 0.627666 -0.019786
v -0.177853 0.627778 -0.017676
v -0.180633 0.629767 -0.017724
v -0.180036 0.627666 -0.019775
v -0.083884 0.355777 -0.011230
v -0.085176 0.355756 -0.011210
v -0.084389 0.346931 -0.013068
v -0.023018 0.548175 -0.017724
v -0.025734 0.546165 -0.017655
v -0.023564 0.546075 -0.019754
v 0.025037 0.546165 -0.017655
v 0.022322 0.548175 -0.017724
v 0.022867 0.546075 -0.019754
v 0.084475 0.355736 -0.011209
v 0.083126 0.355777 -0.011230
v 0.083538 0.347226 -0.013076
v 0.188978 0.629767 -0.017724
v 0.186141 0.627798 -0.017676
v 0.188335 0.627666 -0.019775
v 0.238255 0.627836 -0.017688
v 0.236982 0.629767 -0.017724
v 0.235895 0.627666 -0.019786
v 0.088132 0.277995 -0.011199
v 0.085918 0.278165 -0.013304
v 0.085202 0.276064 -0.011163
v 0.079755 0.278017 -0.011225
v 0.082633 0.276064 -0.011163
v 0.081958 0.278165 -0.013333
v 0.000694 0.476968 -0.017660
v -0.000092 0.484637 -0.020010
v -0.000851 0.476965 -0.017659
v -0.079095 0.278020 -0.011225
v -0.081297 0.278165 -0.013333
v -0.081966 0.276064 -0.011163
v -0.087427 0.278011 -0.011199
v -0.084535 0.276064 -0.011163
v -0.085222 0.278165 -0.013304
v 0.238255 0.627836 0.017687
v 0.235895 0.627666 0.019786
v 0.236982 0.629767 0.017724
v 0.088132 0.277995 0.011199
v 0.085202 0.276064 0.011163
v 0.085918 0.278165 0.013304
v 0.188978 0.629767 0.017724
v 0.188335 0.627666 0.019775
v 0.186141 0.627798 0.017676
v 0.084475 0.355736 0.011209
v 0.083538 0.347226 0.013076
v 0.083126 0.355777 0.011230
v 0.025037 0.546165 0.017655
v 0.022867 0.546075 0.019754
v 0.022322 0.548175 0.017724
v -0.023018 0.548175 0.017724
v -0.023564 0.546075 0.019754
v -0.025734 0.546165 0.017655
v 0.000694 0.476968 0.017659
v -0.000851 0.476965 0.017659
v -0.000092 0.484637 0.020010
v -0.083884 0.355777 0.011230
v -0.084389 0.346931 0.013068
v -0.085176 0.355756 0.011210
v -0.177853 0.627778 0.017676
v -0.180036 0.627666 0.019775
v -0.180633 0.629767 0.017724
v -0.228104 0.629767 0.017724
v -0.227084 0.627666 0.019786
v -0.229415 0.627820 0.017687
v -0.087427 0.278011 0.011199
v -0.085222 0.278165 0.013304
v -0.084535 0.276064 0.011163
v 0.079755 0.278017 0.011225
v 0.081958 0.278165 0.013333
v 0.082633 0.276064 0.011163
v -0.079095 0.278020 0.011225
v -0.081966 0.276064 0.011163
v -0.081297 0.278165 0.013333
vt 0.005506 0.000000
vt 0.994494 0.000000
vt 0.994494 0.000000
vt 0.832531 0.000000
vt 0.750802 0.000000
vt 0.750802 0.000000
vt 0.257462 0.000000
vt 0.657876 0.000000
vt 0.558138 0.000000
vt 0.415805 0.000000
vt 0.334195 0.000000
vt 0.334195 0.000000
vt 0.558138 0.000000
vt 0.334858 0.000000
vt 0.611447 0.000000
vt 0.724139 0.000000
vt 0.692528 0.000000
vt 0.692528 0.000000
vt 0.166066 0.000000
vt 0.083934 0.000000
vt 0.083934 0.000000
vt 0.666212 0.000000
vt 0.583788 0.000000
vt 0.583788 0.000000
vt 0.915863 0.000000
vt 0.834137 0.000000
vt 0.834137 0.000000
vt 0.329798 0.000000
vt 0.253535 0.000000
vt 0.253535 0.000000
vt 0.579979 0.000000
vt 0.503355 0.000000
vt 0.503355 0.000000
vt 0.974139 0.000000
vt 0.942528 0.000000
vt 0.942528 0.000000
vt 0.249138 0.000000
vt 0.167528 0.000000
vt 0.167528 0.000000
vt 0.499406 0.000000
vt 0.417261 0.000000
vt 0.417261 0.000000
vt 0.003389 0.000000
vt 0.009359 0.000000
vt 0.079944 0.000000
vt 0.083381 0.000000
vt 0.334858 0.000000
vt 0.611447 0.000000
vt 0.504375 0.000000
vt 0.580578 0.000000
vt 0.684474 0.000000
vt 0.728257 0.000000
vt 0.931753 0.000000
vt 0.973721 0.000000
vt 0.580578 0.000000
vt 0.579979 0.000000
vt 0.666212 0.000000
vt 0.684474 0.000000
vt 0.504375 0.000000
vt 0.499406 0.000000
vt 0.415805 0.000000
vt 0.329798 0.000000
vt 0.257462 0.000000
vt 0.249138 0.000000
vt 0.832531 0.000000
vt 0.657876 0.000000
vt 0.166066 0.000000
vt 0.083381 0.000000
vt 0.079944 0.000000
vt 0.003389 0.000000
vt 0.009359 0.000000
vt 0.005505 0.000000
vt 0.973721 0.000000
vt 0.974139 0.000000
vt 0.728257 0.000000
vt 0.724139 0.000000
vt 0.915863 0.000000
vt 0.931753 0.000000
vn 0.9266 0.3761 -0.0000
vn 0.9293 0.3693 0.0000
vn 0.0548 0.0168 0.9984
vn -0.9565 -0.2918 0.0000
vn -0.0555 0.0166 -0.9983
vn 0.0000 1.0000 0.0000
vn -0.9466 -0.3225 0.0000
vn -0.9190 0.3943 0.0000
vn -0.9306 0.3660 0.0000
vn 0.0000 -1.0000 0.0000
vn 0.9564 -0.2921 0.0000
vn 0.9367 -0.3500 -0.0000
vn 0.6013 -0.3919 0.6963
vn -0.4930 -0.6755 0.5483
vn 0.0184 -0.2044 0.9787
vn 0.5055 -0.6640 0.5510
vn -0.5056 -0.6639 0.5510
vn -0.0213 -0.2120 0.9770
vn 0.4830 -0.6829 0.5480
vn -0.5988 -0.3815 0.7042
vn -0.4588 0.7060 0.5395
vn 0.4660 0.7037 0.5363
vn -0.0005 0.2930 0.9561
vn -0.4672 0.7029 0.5363
vn 0.4657 0.7016 0.5393
vn -0.5988 -0.3815 -0.7042
vn -0.4588 0.7060 -0.5395
vn 0.4830 -0.6829 -0.5480
vn -0.0213 -0.2120 -0.9770
vn -0.5056 -0.6639 -0.5510
vn 0.5055 -0.6640 -0.5510
vn -0.0005 0.2930 -0.9561
vn 0.0184 -0.2044 -0.9787
vn -0.4930 -0.6755 -0.5483
vn 0.6013 -0.3919 -0.6963
vn 0.4657 0.7016 -0.5393
vn 0.4660 0.7037 -0.5363
vn -0.4672 0.7029 -0.5363
vn -0.6474 0.2909 0.7044
vn 0.0002 -0.6987 0.7154
vn 0.6601 -0.2296 0.7152
vn -0.6797 -0.1834 0.7102
vn -0.0000 -0.6951 0.7189
vn 0.6848 -0.1855 0.7048
vn -0.6719 -0.2120 0.7096
vn 0.0000 -0.7005 0.7136
vn 0.6529 0.2781 0.7045
vn 0.6532 0.2823 0.7026
vn -0.6542 0.2800 0.7026
vn -0.0052 0.7145 0.6996
vn 0.0000 0.7184 0.6956
vn -0.6474 0.2909 -0.7044
vn 0.0002 -0.6987 -0.7154
vn 0.6601 -0.2296 -0.7152
vn -0.6797 -0.1834 -0.7102
vn 0.0000 -0.6951 -0.7189
vn 0.6848 -0.1855 -0.7047
vn -0.6719 -0.2120 -0.7096
vn 0.0000 -0.7005 -0.7136
vn 0.6529 0.2781 -0.7045
vn 0.6532 0.2823 -0.7026
vn -0.6542 0.2800 -0.7026
vn -0.0052 0.7145 -0.6996
vn 0.0000 0.7184 -0.6956
vn 0.5616 0.8274 0.0000
vn -0.5503 0.8350 0.0000
vn -0.5820 -0.8132 0.0000
vn 0.8295 -0.5585 0.0000
vn -0.5951 -0.8037 0.0000
vn 0.5949 -0.8038 0.0000
vn 0.5585 0.8295 0.0000
vn -0.5630 0.8264 0.0000
vn -0.8350 -0.5503 0.0000
vn 0.5701 -0.8216 0.0000
vn -0.0018 1.0000 0.0000
vn 0.0160 -0.9999 0.0000
vn -0.0307 -0.9995 0.0000
vn 0.0471 -0.0017 0.9989
vn 0.0002 0.0238 0.9997
vn -0.0555 0.0166 0.9983
vn -0.0000 -0.0042 1.0000
vn -0.0855 -0.0017 0.9963
vn -0.0073 -0.0035 1.0000
vn 0.0074 -0.0035 1.0000
vn 0.0823 -0.0001 0.9966
vn -0.0002 0.0238 0.9997
vn -0.0525 -0.0028 0.9986
vn 0.0002 0.0238 -0.9997
vn 0.0471 -0.0017 -0.9989
vn -0.0073 -0.0035 -1.0000
vn -0.0855 -0.0017 -0.9963
vn 0.0823 -0.0001 -0.9966
vn 0.0074 -0.0035 -1.0000
vn -0.0525 -0.0028 -0.9986
vn -0.0002 0.0238 -0.9997
vn 0.0548 0.0168 -0.9984
vn 0.0000 -0.0042 -1.0000
vn 0.6651 -0.2317 0.7099
vn -0.6846 -0.1852 0.7050
vn 0.6796 -0.1836 0.7102
vn -0.6666 -0.2100 0.7152
vn -0.0002 -0.6987 0.7154
vn 0.0053 0.7145 0.6996
vn -0.6475 0.2909 -0.7044
vn 0.6651 -0.2317 -0.7099
vn -0.6846 -0.1852 -0.7050
vn 0.6796 -0.1836 -0.7102
vn -0.6666 -0.2100 -0.7152
vn -0.0002 -0.6987 -0.7154
vn 0.0053 0.7145 -0.6996
s off
f 2/1/1 70/2/1 37/3/1
f 31/4/2 73/5/2 28/6/2
f 12/7/3 9/8/3 32/9/3
f 17/10/4 52/11/4 13/12/4
f 60/13/5 53/14/5 50/15/5
f 29/16/6 44/17/6 27/18/6
f 8/19/7 64/20/7 4/21/7
f 25/22/8 40/23/8 22/24/8
f 34/25/9 59/26/9 33/27/9
f 14/28/10 55/29/10 10/30/10
f 23/31/10 46/32/10 19/33/10
f 38/34/6 77/35/6 36/36/6
f 11/37/11 61/38/11 7/39/11
f 20/40/12 49/41/12 16/42/12
f 1/43/13 2/1/13 3/44/13
f 4/21/14 5/45/14 6/46/14
f 7/39/15 8/19/15 9/8/15
f 10/30/16 11/37/16 12/7/16
f 13/12/17 14/28/17 15/47/17
f 16/42/18 17/10/18 18/48/18
f 19/33/19 20/40/19 21/49/19
f 22/24/20 23/31/20 24/50/20
f 25/22/21 26/51/21 27/18/21
f 28/6/22 29/16/22 30/52/22
f 31/4/23 32/9/23 33/27/23
f 34/25/24 35/53/24 36/36/24
f 37/3/25 38/34/25 39/54/25
f 40/23/26 41/55/26 42/56/26
f 43/57/27 44/17/27 45/58/27
f 46/32/28 47/59/28 48/60/28
f 49/41/29 50/15/29 51/61/29
f 52/11/30 53/14/30 54/62/30
f 55/29/31 56/63/31 57/64/31
f 58/65/32 59/26/32 60/13/32
f 61/38/33 62/66/33 63/67/33
f 64/20/34 65/68/34 66/69/34
f 67/70/35 68/71/35 69/72/35
f 70/2/36 71/73/36 72/74/36
f 73/5/37 74/75/37 75/76/37
f 76/77/38 77/35/38 78/78/38
f 24/50/39 25/22/39 22/24/39
f 24/50/40 19/33/40 21/49/40
f 21/49/41 16/42/41 18/48/41
f 15/47/42 17/10/42 13/12/42
f 15/47/43 10/30/43 12/7/43
f 12/7/44 7/39/44 9/8/44
f 6/46/45 8/19/45 4/21/45
f 3/44/46 5/45/46 1/43/46
f 37/3/47 3/44/47 2/1/47
f 30/52/48 31/4/48 28/6/48
f 35/53/49 33/27/49 32/9/49
f 30/52/50 27/18/50 26/51/50
f 35/53/51 38/34/51 36/36/51
f 43/57/52 41/55/52 40/23/52
f 46/32/53 41/55/53 47/59/53
f 49/41/54 47/59/54 50/15/54
f 51/61/55 53/14/55 52/11/55
f 55/29/56 53/14/56 56/63/56
f 61/38/57 56/63/57 62/66/57
f 63/67/58 65/68/58 64/20/58
f 66/69/59 68/71/59 67/70/59
f 68/71/60 70/2/60 69/72/60
f 58/65/61 74/75/61 73/5/61
f 59/26/62 78/78/62 60/13/62
f 44/17/63 74/75/63 45/58/63
f 72/74/64 78/78/64 77/35/64
f 73/5/65 29/16/65 28/6/65
f 25/22/66 44/17/66 43/57/66
f 64/20/67 5/45/67 4/21/67
f 2/1/68 67/70/68 69/72/68
f 52/11/69 14/28/69 13/12/69
f 57/64/70 10/30/70 55/29/70
f 37/3/71 72/74/71 38/34/71
f 34/25/72 77/35/72 76/77/72
f 23/31/73 40/23/73 42/56/73
f 20/40/74 46/32/74 48/60/74
f 59/26/75 31/4/75 33/27/75
f 8/19/76 61/38/76 63/67/76
f 17/10/77 49/41/77 51/61/77
f 5/45/10 67/70/10 1/43/10
f 2/1/1 69/72/1 70/2/1
f 31/4/2 58/65/2 73/5/2
f 26/51/78 24/50/78 18/48/78
f 24/50/79 21/49/79 18/48/79
f 18/48/80 15/47/80 32/9/80
f 15/47/81 12/7/81 32/9/81
f 32/9/82 30/52/82 18/48/82
f 30/52/83 26/51/83 18/48/83
f 39/54/84 35/53/84 9/8/84
f 35/53/85 32/9/85 9/8/85
f 6/46/86 3/44/86 9/8/86
f 3/44/87 39/54/87 9/8/87
f 17/10/4 51/61/4 52/11/4
f 47/59/88 41/55/88 50/15/88
f 41/55/89 45/58/89 50/15/89
f 45/58/90 74/75/90 50/15/90
f 74/75/91 60/13/91 50/15/91
f 60/13/92 78/78/92 62/66/92
f 78/78/93 71/73/93 62/66/93
f 71/73/94 68/71/94 62/66/94
f 68/71/95 65/68/95 62/66/95
f 62/66/96 56/63/96 60/13/96
f 56/63/97 53/14/97 60/13/97
f 29/16/6 75/76/6 44/17/6
f 8/19/7 63/67/7 64/20/7
f 25/22/8 43/57/8 40/23/8
f 34/25/9 76/77/9 59/26/9
f 14/28/10 54/62/10 55/29/10
f 23/31/10 42/56/10 46/32/10
f 38/34/6 72/74/6 77/35/6
f 11/37/11 57/64/11 61/38/11
f 20/40/12 48/60/12 49/41/12
f 24/50/39 26/51/39 25/22/39
f 24/50/46 23/31/46 19/33/46
f 21/49/98 20/40/98 16/42/98
f 15/47/99 18/48/99 17/10/99
f 15/47/43 14/28/43 10/30/43
f 12/7/100 11/37/100 7/39/100
f 6/46/101 9/8/101 8/19/101
f 3/44/102 6/46/102 5/45/102
f 37/3/47 39/54/47 3/44/47
f 30/52/48 32/9/48 31/4/48
f 35/53/49 34/25/49 33/27/49
f 30/52/51 29/16/51 27/18/51
f 35/53/103 39/54/103 38/34/103
f 43/57/104 45/58/104 41/55/104
f 46/32/59 42/56/59 41/55/59
f 49/41/105 48/60/105 47/59/105
f 51/61/106 50/15/106 53/14/106
f 55/29/56 54/62/56 53/14/56
f 61/38/107 57/64/107 56/63/107
f 63/67/108 62/66/108 65/68/108
f 66/69/109 65/68/109 68/71/109
f 68/71/60 71/73/60 70/2/60
f 58/65/61 60/13/61 74/75/61
f 59/26/62 76/77/62 78/78/62
f 44/17/64 75/76/64 74/75/64
f 72/74/110 71/73/110 78/78/110
f 73/5/65 75/76/65 29/16/65
f 25/22/66 27/18/66 44/17/66
f 64/20/67 66/69/67 5/45/67
f 2/1/68 1/43/68 67/70/68
f 52/11/69 54/62/69 14/28/69
f 57/64/70 11/37/70 10/30/70
f 37/3/71 70/2/71 72/74/71
f 34/25/72 36/36/72 77/35/72
f 23/31/73 22/24/73 40/23/73
f 20/40/74 19/33/74 46/32/74
f 59/26/75 58/65/75 31/4/75
f 8/19/76 7/39/76 61/38/76
f 17/10/77 16/42/77 49/41/77
f 5/45/10 66/69/10 67/70/10
