# Blender v3.0.0 OBJ File: 'untitled.blend'
# www.blender.org
o fance_Cylinder.001
v -0.903870 0.619102 -0.023917
v -0.905304 0.019103 -0.024059
v -0.889651 0.019103 -0.016874
v -0.888761 0.619102 -0.015984
v -0.882406 0.019103 -0.004095
v -0.882161 0.619102 -0.002860
v -0.884883 0.619102 0.014146
v -0.884204 0.019103 0.012875
v -0.896831 0.019103 0.024587
v -0.897994 0.619102 0.025068
v -0.913826 0.019103 0.026134
v -0.915205 0.619102 0.025716
v -0.929303 0.019103 0.014146
v -0.929982 0.619102 0.012875
v -0.932120 0.019103 -0.000565
v -0.932033 0.619102 -0.001441
v -0.928475 0.019103 -0.012073
v -0.927776 0.619102 -0.013120
v -0.919315 0.019103 -0.020475
v -0.918539 0.619102 -0.020890
v 0.877253 0.019103 -0.023569
v 0.873441 0.619102 -0.024059
v 0.886676 0.019103 -0.020890
v 0.895913 0.019103 -0.013119
v 0.889807 0.619102 -0.019226
v 0.900170 0.019103 -0.001442
v 0.898841 0.619102 -0.007641
v 0.898841 0.019103 0.010556
v 0.900170 0.619102 0.004357
v 0.889807 0.019103 0.022141
v 0.895913 0.619102 0.016034
v 0.886676 0.619102 0.023805
v 0.873441 0.019103 0.026973
v 0.874601 0.619102 0.026753
v 0.857788 0.019103 0.019789
v 0.858453 0.619102 0.020765
v 0.850543 0.019103 0.007010
v 0.851079 0.619102 0.008324
v 0.850543 0.619102 -0.004095
v 0.851079 0.019103 -0.005409
v 0.856898 0.019103 -0.015984
v 0.857788 0.619102 -0.016875
v 0.867521 0.019103 -0.022438
v -0.899588 0.540510 0.001457
v 0.871608 0.540510 0.001457
v -0.899588 0.611503 0.001457
v 0.871608 0.611503 0.001457
v -0.885519 0.001372 0.049213
v -0.919508 0.001372 0.052308
v -0.950462 0.001372 0.028332
v -0.956096 0.001372 -0.001090
v -0.948807 0.001372 -0.024106
v -0.930487 0.001372 -0.040910
v 0.879011 0.001372 -0.045773
v 0.897858 0.001372 -0.040415
v 0.916332 0.001372 -0.024873
v 0.924846 0.001372 -0.001519
v 0.922188 0.001372 0.022477
v 0.904119 0.001372 0.045646
v 0.825592 0.001372 0.015385
v 0.826664 0.001372 -0.009453
v 0.859548 0.001372 -0.043511
v -0.871159 0.001372 -0.033709
v -0.902465 0.001372 -0.048077
v -0.856669 0.001372 -0.008150
v -0.860264 0.001372 0.025790
v 0.871388 0.001372 0.055312
v 0.840083 0.001372 0.040944
v 0.838302 0.001372 -0.030604
vt 0.024748 0.977569
vt 0.024748 0.977569
vt 0.024748 0.977569
vt 0.024748 0.977569
vt 0.024748 0.977569
vt 0.024748 0.977569
vt 0.024748 0.977569
vt 0.024748 0.977569
vt 0.024748 0.977569
vt 0.024748 0.977569
vt 0.024748 0.977569
vt 0.024748 0.977569
vt 0.024748 0.977569
vt 0.024748 0.977569
vt 0.024748 0.977569
vt 0.024748 0.977569
vt 0.024748 0.977569
vt 0.024748 0.977569
vt 0.024748 0.977569
vt 0.024748 0.977569
vt 0.024748 0.977569
vt 0.024748 0.977569
vt 0.024748 0.977569
vt 0.024748 0.977569
vt 0.024748 0.977569
vt 0.024748 0.977569
vt 0.024748 0.977569
vt 0.024748 0.977569
vt 0.024748 0.977569
vt 0.024748 0.977569
vt 0.024748 0.977569
vt 0.024748 0.977569
vt 0.024748 0.977569
vt 0.024748 0.977569
vt 0.024748 0.977569
vt 0.024748 0.977569
vt 0.024748 0.977569
vt 0.024748 0.977569
vt 0.024748 0.977569
vt 0.024748 0.977569
vt 0.024748 0.977569
vt 0.024748 0.977569
vt 0.024748 0.977569
vt 0.024748 0.977569
vt 0.024748 0.977569
vt 0.522133 0.980561
vt 0.522133 0.980561
vt 0.522133 0.980561
vt 0.024748 0.977569
vt 0.024748 0.977569
vt 0.024748 0.977569
vt 0.024748 0.977569
vt 0.024748 0.977569
vt 0.024748 0.977569
vt 0.024748 0.977569
vt 0.024748 0.977569
vt 0.024748 0.977569
vt 0.024748 0.977569
vt 0.024748 0.977569
vt 0.024748 0.977569
vt 0.024748 0.977569
vt 0.024748 0.977569
vt 0.024748 0.977569
vt 0.024748 0.977569
vt 0.024748 0.977569
vt 0.024748 0.977569
vt 0.024748 0.977569
vt 0.024748 0.977569
vt 0.522133 0.980561
vn 0.6438 -0.0012 -0.7652
vn 0.9395 -0.0015 -0.3425
vn 0.9939 -0.0011 0.1101
vn 0.7885 -0.0018 0.6150
vn -0.4171 -0.0010 0.9088
vn -0.9991 -0.0008 -0.0431
vn -0.1155 -0.0015 -0.9933
vn 0.4473 0.8235 0.3488
vn 0.8934 0.0006 -0.4493
vn 0.9874 0.0008 0.1581
vn 0.6401 0.0006 0.7683
vn 0.0376 0.0008 0.9993
vn -0.6559 0.0009 0.7548
vn -0.9899 0.0003 0.1418
vn -0.9395 0.0005 -0.3425
vn -0.6437 0.0003 -0.7652
vn -0.2021 0.0007 -0.9794
vn 0.4649 0.0006 -0.8854
vn 0.0000 1.0000 0.0000
vn 0.2735 0.0012 -0.9619
vn 0.5703 0.7947 -0.2079
vn 0.2372 -0.0001 0.9715
vn 0.7885 0.0018 -0.6150
vn 0.9939 0.0011 -0.1101
vn 0.9395 0.0015 0.3425
vn 0.6438 0.0012 0.7652
vn -0.8699 -0.0003 0.4932
vn -0.3477 0.0010 0.9376
vn -0.8761 0.0006 -0.4821
vn -0.9991 0.0008 0.0431
vn -0.4171 0.0017 -0.9088
vn 0.0000 -0.0000 1.0000
vn 0.0000 -1.0000 -0.0000
vn -0.5923 0.7977 0.1134
vn -0.0727 0.7765 -0.6259
vn -0.1531 0.7863 -0.5986
vn 0.1571 0.8321 0.5320
vn 0.5727 0.8175 0.0607
vn 0.1724 0.7763 -0.6063
vn -0.2313 0.8322 0.5039
vn -0.4922 0.8245 0.2791
vn -0.5818 0.7922 -0.1842
vn 0.5824 0.8103 0.0645
vn 0.0517 0.8216 0.5678
vn -0.5847 0.8109 -0.0252
vn -0.5300 0.7963 -0.2916
vn 0.4024 0.7805 -0.4783
vn 0.2546 0.7922 -0.5547
vn -0.3245 0.7807 -0.5341
vn -0.3622 0.8063 0.4676
vn 0.5115 0.8089 -0.2900
vn -0.4171 0.7869 -0.4547
vn 0.3857 0.8236 0.4158
vn 0.8699 -0.0006 -0.4932
vn 0.9944 -0.0006 0.1053
vn 0.6800 -0.0008 0.7332
vn 0.0907 -0.0006 0.9959
vn -0.6124 -0.0009 0.7906
vn -0.9822 -0.0007 0.1881
vn -0.9533 -0.0003 -0.3019
vn -0.6760 -0.0005 -0.7369
vn -0.2478 -0.0003 -0.9688
vn 0.4171 -0.0008 -0.9088
vn 0.2832 0.0010 -0.9591
vn 0.2832 -0.0012 0.9591
vn -0.8603 0.0001 0.5098
vn -0.8699 0.0003 -0.4932
vn -0.5192 -0.0005 -0.8546
vn -0.5924 0.7977 0.1134
vn -0.0727 0.7765 -0.6258
s off
f 25/1/1 24/2/1 23/3/1
f 27/4/2 26/5/2 24/2/2
f 29/6/3 28/7/3 26/5/3
f 31/8/4 30/9/4 28/7/4
f 36/10/5 35/11/5 33/12/5
f 39/13/6 40/14/6 37/15/6
f 22/16/7 21/17/7 43/18/7
f 30/9/8 58/19/8 28/7/8
f 5/20/9 4/21/9 6/22/9
f 8/23/10 6/22/10 7/24/10
f 9/25/11 7/24/11 10/26/11
f 11/27/12 10/26/12 12/28/12
f 13/29/13 12/28/13 14/30/13
f 15/31/14 14/30/14 16/32/14
f 17/33/15 16/32/15 18/34/15
f 19/35/16 18/34/16 20/36/16
f 2/37/17 20/36/17 1/38/17
f 3/39/18 1/38/18 4/21/18
f 10/26/19 6/22/19 20/36/19
f 21/17/20 25/1/20 23/3/20
f 26/5/21 56/40/21 24/2/21
f 33/12/22 32/41/22 34/42/22
f 25/1/23 27/4/23 24/2/23
f 27/4/24 29/6/24 26/5/24
f 29/6/25 31/8/25 28/7/25
f 31/8/26 32/41/26 30/9/26
f 35/11/27 38/43/27 37/15/27
f 34/42/28 36/10/28 33/12/28
f 40/14/29 42/44/29 41/45/29
f 38/43/30 39/13/30 37/15/30
f 43/18/31 42/44/31 22/16/31
f 38/43/19 36/10/19 34/42/19
f 44/46/32 47/47/32 46/48/32
f 57/49/33 59/50/33 61/51/33
f 53/52/33 48/53/33 51/54/33
f 13/29/34 51/54/34 50/55/34
f 43/18/35 54/56/35 62/57/35
f 2/37/36 53/52/36 19/35/36
f 33/12/37 59/50/37 30/9/37
f 8/23/38 65/58/38 5/20/38
f 23/3/39 54/56/39 21/17/39
f 33/12/40 68/59/40 67/60/40
f 35/11/41 60/61/41 68/59/41
f 15/31/42 52/62/42 51/54/42
f 28/7/43 57/49/43 26/5/43
f 9/25/44 49/63/44 48/53/44
f 37/15/45 61/51/45 60/61/45
f 40/14/46 69/64/46 61/51/46
f 24/2/47 55/65/47 23/3/47
f 3/39/48 64/66/48 2/37/48
f 41/45/49 62/57/49 69/64/49
f 11/27/50 50/55/50 49/63/50
f 5/20/51 63/67/51 3/39/51
f 17/33/52 53/52/52 52/62/52
f 8/23/53 48/53/53 66/68/53
f 30/9/8 59/50/8 58/19/8
f 5/20/54 3/39/54 4/21/54
f 8/23/55 5/20/55 6/22/55
f 9/25/56 8/23/56 7/24/56
f 11/27/57 9/25/57 10/26/57
f 13/29/58 11/27/58 12/28/58
f 15/31/59 13/29/59 14/30/59
f 17/33/60 15/31/60 16/32/60
f 19/35/61 17/33/61 18/34/61
f 2/37/62 19/35/62 20/36/62
f 3/39/63 2/37/63 1/38/63
f 4/21/19 1/38/19 20/36/19
f 20/36/19 18/34/19 16/32/19
f 16/32/19 14/30/19 12/28/19
f 12/28/19 10/26/19 16/32/19
f 10/26/19 7/24/19 6/22/19
f 16/32/19 10/26/19 20/36/19
f 6/22/19 4/21/19 20/36/19
f 21/17/64 22/16/64 25/1/64
f 26/5/21 57/49/21 56/40/21
f 33/12/65 30/9/65 32/41/65
f 35/11/66 36/10/66 38/43/66
f 40/14/67 39/13/67 42/44/67
f 43/18/68 41/45/68 42/44/68
f 34/42/19 32/41/19 38/43/19
f 32/41/19 31/8/19 29/6/19
f 38/43/19 32/41/19 29/6/19
f 29/6/19 27/4/19 25/1/19
f 42/44/19 25/1/19 22/16/19
f 29/6/19 25/1/19 42/44/19
f 42/44/19 39/13/19 38/43/19
f 29/6/19 42/44/19 38/43/19
f 44/46/32 45/69/32 47/47/32
f 54/56/33 55/65/33 57/49/33
f 55/65/33 56/40/33 57/49/33
f 57/49/33 58/19/33 59/50/33
f 54/56/33 57/49/33 61/51/33
f 59/50/33 67/60/33 68/59/33
f 61/51/33 68/59/33 60/61/33
f 59/50/33 68/59/33 61/51/33
f 61/51/33 69/64/33 62/57/33
f 54/56/33 61/51/33 62/57/33
f 63/67/33 65/58/33 53/52/33
f 65/58/33 66/68/33 48/53/33
f 48/53/33 49/63/33 51/54/33
f 49/63/33 50/55/33 51/54/33
f 51/54/33 52/62/33 53/52/33
f 53/52/33 64/66/33 63/67/33
f 65/58/33 48/53/33 53/52/33
f 13/29/69 15/31/69 51/54/69
f 43/18/70 21/17/70 54/56/70
f 2/37/36 64/66/36 53/52/36
f 33/12/37 67/60/37 59/50/37
f 8/23/38 66/68/38 65/58/38
f 23/3/39 55/65/39 54/56/39
f 33/12/40 35/11/40 68/59/40
f 35/11/41 37/15/41 60/61/41
f 15/31/42 17/33/42 52/62/42
f 28/7/43 58/19/43 57/49/43
f 9/25/44 11/27/44 49/63/44
f 37/15/45 40/14/45 61/51/45
f 40/14/46 41/45/46 69/64/46
f 24/2/47 56/40/47 55/65/47
f 3/39/48 63/67/48 64/66/48
f 41/45/49 43/18/49 62/57/49
f 11/27/50 13/29/50 50/55/50
f 5/20/51 65/58/51 63/67/51
f 17/33/52 19/35/52 53/52/52
f 8/23/53 9/25/53 48/53/53
